<svg width="46" height="32" viewBox="0 0 46 32" fill="none" xmlns="http://www.w3.org/2000/svg">
<path d="M26.3158 12.5H34.0526M11.9474 22.125H34.0526M13.0526 2H32.9474C34.3179 2 35.5337 2.035 36.6168 2.1575C42.4305 2.665 44 4.835 44 10.75V21.25C44 27.165 42.4305 29.335 36.6168 29.8425C35.5337 29.965 34.3179 30 32.9474 30H13.0526C11.6821 30 10.4663 29.965 9.38316 29.8425C3.56947 29.335 2 27.165 2 21.25V10.75C2 4.835 3.56947 2.665 9.38316 2.1575C10.4663 2.035 11.6821 2 13.0526 2Z" stroke="#505050" stroke-width="3" stroke-linecap="round" stroke-linejoin="round"/>
</svg>
