<svg width="20" height="20" viewBox="0 0 20 20" fill="none" xmlns="http://www.w3.org/2000/svg">
<g clip-path="url(#clip0_1_660)">
<path d="M18.108 1.87998C16.1335 -0.093457 12.9217 -0.093457 10.9472 1.87998L6.77246 6.0547L11.5122 10.7945C12.4878 9.98212 13.7245 9.47347 15.0902 9.47347C15.8735 9.47347 16.6189 9.63618 17.2971 9.92673L18.108 9.04083C20.0819 7.06683 20.0819 3.85454 18.108 1.87998Z" fill="#9B9B9B"/>
<path d="M10.7229 11.5964L5.97655 6.8501L1.89063 10.94C-0.0833344 12.914 -0.0833344 16.1263 1.89063 18.1008C3.86512 20.0742 7.11438 20.1118 9.08894 18.1383L9.91724 17.306C9.62669 16.6278 9.46398 15.8824 9.46398 15.0991C9.46402 13.7685 9.94776 12.5607 10.7229 11.5964Z" fill="#9B9B9B"/>
<path d="M10.5889 15.0992C10.5889 17.3921 12.3099 19.2634 14.5269 19.5431V10.6553C12.3099 10.935 10.5889 12.8062 10.5889 15.0992Z" fill="#9B9B9B"/>
<path d="M15.6523 10.6553V19.5431C17.8694 19.2634 19.5904 17.3921 19.5904 15.0992C19.5904 12.8062 17.8695 10.935 15.6523 10.6553Z" fill="#9B9B9B"/>
</g>
<defs>
<clipPath id="clip0_1_660">
<rect width="19.2" height="19.2" fill="white" transform="translate(0.400391 0.399902)"/>
</clipPath>
</defs>
</svg>
