<svg width="36" height="36" viewBox="0 0 36 36" fill="none" xmlns="http://www.w3.org/2000/svg">
<path d="M12.5524 8.88874C11.6858 8.02195 11.1991 6.84643 11.1992 5.62077C11.1994 4.3951 11.6864 3.2197 12.5532 2.35314C13.42 1.48658 14.5955 0.999841 15.8212 1C17.0468 1.00016 18.2222 1.4872 19.0888 2.35399L23.4459 6.71106C24.2965 7.58118 24.7697 8.75163 24.7628 9.96844C24.7559 11.1853 24.2695 12.3503 23.4091 13.2107C22.5486 14.0711 21.3836 14.5576 20.1668 14.5644C18.95 14.5713 17.7795 14.0981 16.9094 13.2475L12.5524 8.88874Z" stroke="white" stroke-width="2"/>
<path d="M21.3991 4.40063C21.3991 4.40063 21.0166 6.38622 18.7998 8.6013C16.583 10.8181 14.5991 11.2006 14.5991 11.2006" stroke="white" stroke-width="2"/>
<path d="M6.09961 32.2589H9.94145C11.6584 32.2589 13.3974 32.4391 15.0684 32.7825C18.0518 33.3954 21.1215 33.4633 24.129 32.9831C25.6046 32.7451 27.0529 32.3796 28.3653 31.7472C29.5484 31.1744 30.9984 30.3703 31.9725 29.4676C32.9449 28.5667 33.958 27.0928 34.6754 25.9403C35.2942 24.9509 34.995 23.7389 34.0192 23.0028C33.4709 22.604 32.8103 22.3891 32.1323 22.3891C31.4543 22.3891 30.7937 22.604 30.2454 23.0028L27.1736 25.3232C25.9837 26.2242 24.6832 27.052 23.1346 27.2985C22.9476 27.3274 22.7521 27.3546 22.5481 27.3784M22.5481 27.3784C22.4858 27.3856 22.4235 27.3924 22.3611 27.3988M22.5481 27.3784C22.8202 27.3048 23.0697 27.1646 23.274 26.9704C23.5301 26.7488 23.7393 26.4782 23.8892 26.1744C24.039 25.8706 24.1265 25.5399 24.1465 25.2018C24.1664 24.8637 24.1185 24.525 24.0054 24.2057C23.8923 23.8864 23.7165 23.593 23.4882 23.3428C23.2667 23.0969 23.0087 22.8864 22.7232 22.7189C17.9685 19.8817 10.5687 22.0423 6.09961 25.2127M22.5481 27.3784C22.4867 27.3918 22.424 27.3986 22.3611 27.3988M22.3611 27.3988C21.3359 27.5018 20.3031 27.5041 19.2774 27.4056" stroke="white" stroke-width="2" stroke-linecap="round"/>
<path d="M6.09996 23.9501C6.09996 22.5418 4.95829 21.4001 3.54998 21.4001C2.14166 21.4001 1 22.5418 1 23.9501V32.4501C1 33.8584 2.14166 35 3.54998 35C4.95829 35 6.09996 33.8584 6.09996 32.4501V23.9501Z" stroke="white" stroke-width="2"/>
</svg>
